HIERARCHY
ROOT Hips
{
    OFFSET 0.000000 0.000000 0.000000
    CHANNELS 6 Xposition Yposition Zposition Zrotation Xrotation Yrotation
    JOINT Spine
    {
        OFFSET -0.000000 0.076824 0.000000
        CHANNELS 3 Zrotation Xrotation Yrotation
        JOINT Spine1
        {
            OFFSET -0.000000 0.205639 0.000000
            CHANNELS 3 Zrotation Xrotation Yrotation
            JOINT Neck
            {
                OFFSET -0.000000 0.204794 0.018618
                CHANNELS 3 Zrotation Xrotation Yrotation
                JOINT Head
                {
                    OFFSET -0.000000 0.131164 -0.018738
                    CHANNELS 3 Zrotation Xrotation Yrotation
                    End Site
                    {
                        OFFSET -0.000000 0.187377 0.000000
                    }
                }
            }
            JOINT LeftShoulder
            {
                OFFSET 0.037892 0.189814 -0.002396
                CHANNELS 3 Zrotation Xrotation Yrotation
                JOINT LeftArm
                {
                    OFFSET 0.104721 0.000000 0.000000
                    CHANNELS 3 Zrotation Xrotation Yrotation
                    JOINT LeftForeArm
                    {
                        OFFSET 0.316555 0.000000 0.000000
                        CHANNELS 3 Zrotation Xrotation Yrotation
                        JOINT LeftHand
                        {
                            OFFSET 0.270628 0.000000 0.000000
                            CHANNELS 3 Zrotation Xrotation Yrotation
                            JOINT LeftHandThumb1
                            {
                                OFFSET 0.023422 -0.014053 0.046844
                                CHANNELS 3 Zrotation Xrotation Yrotation
                                JOINT LeftHandThumb2
                                {
                                    OFFSET 0.028107 0.000000 0.000000
                                    CHANNELS 3 Zrotation Xrotation Yrotation
                                    JOINT LeftHandThumb3
                                    {
                                        OFFSET 0.028107 0.000000 0.000000
                                        CHANNELS 3 Zrotation Xrotation Yrotation
                                        End Site
                                        {
                                            OFFSET 0.026333 0.000000 0.000000
                                        }
                                    }
                                }
                            }
                            JOINT LeftHandIndex1
                            {
                                OFFSET 0.084320 0.000000 0.032791
                                CHANNELS 3 Zrotation Xrotation Yrotation
                                JOINT LeftHandIndex2
                                {
                                    OFFSET 0.046844 0.000000 0.000000
                                    CHANNELS 3 Zrotation Xrotation Yrotation
                                    JOINT LeftHandIndex3
                                    {
                                        OFFSET 0.023422 0.000000 0.000000
                                        CHANNELS 3 Zrotation Xrotation Yrotation
                                        End Site
                                        {
                                            OFFSET 0.021944 0.000000 0.000000
                                        }
                                    }
                                }
                            }
                            JOINT LeftHandMiddle1
                            {
                                OFFSET 0.084320 0.000000 0.010868
                                CHANNELS 3 Zrotation Xrotation Yrotation
                                JOINT LeftHandMiddle2
                                {
                                    OFFSET 0.051529 0.000000 0.000000
                                    CHANNELS 3 Zrotation Xrotation Yrotation
                                    JOINT LeftHandMiddle3
                                    {
                                        OFFSET 0.028107 0.000000 0.000000
                                        CHANNELS 3 Zrotation Xrotation Yrotation
                                        End Site
                                        {
                                            OFFSET 0.026333 0.000000 0.000000
                                        }
                                    }
                                }
                            }
                            JOINT LeftHandRing1
                            {
                                OFFSET 0.079635 0.000000 -0.010868
                                CHANNELS 3 Zrotation Xrotation Yrotation
                                JOINT LeftHandRing2
                                {
                                    OFFSET 0.046844 0.000000 0.000000
                                    CHANNELS 3 Zrotation Xrotation Yrotation
                                    JOINT LeftHandRing3
                                    {
                                        OFFSET 0.023422 0.000000 0.000000
                                        CHANNELS 3 Zrotation Xrotation Yrotation
                                        End Site
                                        {
                                            OFFSET 0.021944 0.000000 0.000000
                                        }
                                    }
                                }
                            }
                            JOINT LeftHandPinky1
                            {
                                OFFSET 0.074951 0.000000 -0.032791
                                CHANNELS 3 Zrotation Xrotation Yrotation
                                JOINT LeftHandPinky2
                                {
                                    OFFSET 0.037475 0.000000 0.000000
                                    CHANNELS 3 Zrotation Xrotation Yrotation
                                    JOINT LeftHandPinky3
                                    {
                                        OFFSET 0.018738 0.000000 0.000000
                                        CHANNELS 3 Zrotation Xrotation Yrotation
                                        End Site
                                        {
                                            OFFSET 0.017555 0.000000 0.000000
                                        }
                                    }
                                }
                            }
                        }
                    }
                }
            }
            JOINT RightShoulder
            {
                OFFSET -0.036963 0.189814 -0.002396
                CHANNELS 3 Zrotation Xrotation Yrotation
                JOINT RightArm
                {
                    OFFSET -0.104721 0.000000 0.000000
                    CHANNELS 3 Zrotation Xrotation Yrotation
                    JOINT RightForeArm
                    {
                        OFFSET -0.316555 0.000000 0.000000
                        CHANNELS 3 Zrotation Xrotation Yrotation
                        JOINT RightHand
                        {
                            OFFSET -0.270628 0.000000 0.000000
                            CHANNELS 3 Zrotation Xrotation Yrotation
                            JOINT RightHandThumb1
                            {
                                OFFSET -0.023422 -0.014053 0.046844
                                CHANNELS 3 Zrotation Xrotation Yrotation
                                JOINT RightHandThumb2
                                {
                                    OFFSET -0.028107 0.000000 0.000000
                                    CHANNELS 3 Zrotation Xrotation Yrotation
                                    JOINT RightHandThumb3
                                    {
                                        OFFSET -0.028107 0.000000 0.000000
                                        CHANNELS 3 Zrotation Xrotation Yrotation
                                        End Site
                                        {
                                            OFFSET -0.026333 0.000000 0.000000
                                        }
                                    }
                                }
                            }
                            JOINT RightHandIndex1
                            {
                                OFFSET -0.084320 0.000000 0.032791
                                CHANNELS 3 Zrotation Xrotation Yrotation
                                JOINT RightHandIndex2
                                {
                                    OFFSET -0.046844 0.000000 0.000000
                                    CHANNELS 3 Zrotation Xrotation Yrotation
                                    JOINT RightHandIndex3
                                    {
                                        OFFSET -0.023422 0.000000 0.000000
                                        CHANNELS 3 Zrotation Xrotation Yrotation
                                        End Site
                                        {
                                            OFFSET -0.021944 0.000000 0.000000
                                        }
                                    }
                                }
                            }
                            JOINT RightHandMiddle1
                            {
                                OFFSET -0.084320 0.000000 0.010868
                                CHANNELS 3 Zrotation Xrotation Yrotation
                                JOINT RightHandMiddle2
                                {
                                    OFFSET -0.051529 0.000000 0.000000
                                    CHANNELS 3 Zrotation Xrotation Yrotation
                                    JOINT RightHandMiddle3
                                    {
                                        OFFSET -0.028107 0.000000 0.000000
                                        CHANNELS 3 Zrotation Xrotation Yrotation
                                        End Site
                                        {
                                            OFFSET -0.026333 0.000000 0.000000
                                        }
                                    }
                                }
                            }
                            JOINT RightHandRing1
                            {
                                OFFSET -0.079635 0.000000 -0.010868
                                CHANNELS 3 Zrotation Xrotation Yrotation
                                JOINT RightHandRing2
                                {
                                    OFFSET -0.046844 0.000000 0.000000
                                    CHANNELS 3 Zrotation Xrotation Yrotation
                                    JOINT RightHandRing3
                                    {
                                        OFFSET -0.023422 0.000000 0.000000
                                        CHANNELS 3 Zrotation Xrotation Yrotation
                                        End Site
                                        {
                                            OFFSET -0.021944 0.000000 0.000000
                                        }
                                    }
                                }
                            }
                            JOINT RightHandPinky1
                            {
                                OFFSET -0.074951 0.000000 -0.032791
                                CHANNELS 3 Zrotation Xrotation Yrotation
                                JOINT RightHandPinky2
                                {
                                    OFFSET -0.037475 0.000000 0.000000
                                    CHANNELS 3 Zrotation Xrotation Yrotation
                                    JOINT RightHandPinky3
                                    {
                                        OFFSET -0.018738 0.000000 0.000000
                                        CHANNELS 3 Zrotation Xrotation Yrotation
                                        End Site
                                        {
                                            OFFSET -0.017555 0.000000 0.000000
                                        }
                                    }
                                }
                            }
                        }
                    }
                }
            }
        }
    }
    JOINT LeftUpLeg
    {
        OFFSET 0.093688 0.000000 0.000000
        CHANNELS 3 Zrotation Xrotation Yrotation
        JOINT LeftLeg
        {
            OFFSET -0.000000 -0.377687 0.000000
            CHANNELS 3 Zrotation Xrotation Yrotation
            JOINT LeftFoot
            {
                OFFSET -0.000000 -0.399231 0.000000
                CHANNELS 3 Zrotation Xrotation Yrotation
                JOINT LeftToeBase
                {
                    OFFSET -0.000000 -0.060897 0.140533
                    CHANNELS 3 Zrotation Xrotation Yrotation
                    End Site
                    {
                        OFFSET -0.000000 0.000000 0.037475
                    }
                }
            }
        }
    }
    JOINT RightUpLeg
    {
        OFFSET -0.093688 0.000000 0.000000
        CHANNELS 3 Zrotation Xrotation Yrotation
        JOINT RightLeg
        {
            OFFSET -0.000000 -0.377687 0.000000
            CHANNELS 3 Zrotation Xrotation Yrotation
            JOINT RightFoot
            {
                OFFSET -0.000000 -0.399231 0.000000
                CHANNELS 3 Zrotation Xrotation Yrotation
                JOINT RightToeBase
                {
                    OFFSET -0.000000 -0.060897 0.140533
                    CHANNELS 3 Zrotation Xrotation Yrotation
                    End Site
                    {
                        OFFSET -0.000000 0.000000 0.037475
                    }
                }
            }
        }
    }
}
MOTION
Frames:    4
Frame Time:    0.040000
2.053029    0.802225    0.970554    5.273538    -5.658416    68.267334    -11.372903    -4.087753    -23.920748    -5.512992    9.362461    -7.387487    -5.631153    39.425835    16.095064    -0.987553    -17.925894    15.11579    12.900317    2.733172    -13.014518    -17.135895    22.244547    -57.521469    0.0    -39.824993    -10.0    14.650923    -8.112085    0.0    3.353473    1.729195    4.243567    -0.0    0.0    3.314726    -0.0    0.0    6.629452    -35.685066    0.0    0.0    -71.370132    0.0    0.0    -35.685066    0.0    0.0    -28.828213    0.0    0.0    -57.656433    0.0    0.0    -28.828213    0.0    0.0    -21.971361    0.0    0.0    -43.942722    0.0    0.0    -21.971361    0.0    0.0    -14.906721    0.0    0.0    -29.813442    0.0    0.0    -14.906721    0.0    0.0    -14.273661    4.337739    -11.573606    33.004627    -4.958456    -7.164518    0.0    -46.981655    130.751312    15.114128    -0.432282    0.0    -4.223106    -6.481    5.04459    0.0    0.0    0.0    0.0    0.0    0.0    0.0    0.0    0.0    0.0    0.0    0.0    0.0    0.0    0.0    19.928492    0.0    -0.0    36.299995    0.0    -0.0    19.928492    0.0    -0.0    39.856991    0.0    -0.0    72.600006    0.0    -0.0    39.856991    0.0    -0.0    60.389366    0.0    -0.0    110.0    0.0    -0.0    60.389366    0.0    -0.0    11.712485    -7.635817    24.149111    -0.2    52.312431    1.0    5.0    -30.0    9.368761    2.44747    6.454858    -5.745988    -6.867963    -25.212561    13.748228    0.2    51.589397    -1.0    -1.157865    -17.86804    0.0    0.748566    -4.099805    -3.173371
2.081246    0.800682    0.981519    5.877292    -6.125396    72.069656    -11.550298    -4.198193    -24.811354    -6.261968    10.236469    -7.570839    -5.295675    40.293945    14.29552    0.417996    -16.405775    13.676939    12.601091    3.157118    -13.091233    -16.389629    23.273388    -59.514084    0.0    -39.752769    -10.0    14.291464    -7.433854    0.0    3.534447    1.799178    4.440606    -0.0    0.0    3.464812    -0.0    0.0    6.929625    -35.820404    0.0    0.0    -71.640816    0.0    0.0    -35.820404    0.0    0.0    -28.979849    0.0    0.0    -57.959717    0.0    0.0    -28.979849    0.0    0.0    -22.139305    0.0    0.0    -44.278599    0.0    0.0    -22.139305    0.0    0.0    -15.091461    0.0    0.0    -30.182922    0.0    0.0    -15.091461    0.0    0.0    -14.657228    4.108609    -11.46904    32.329487    -3.877745    -7.719168    0.0    -47.348579    129.662872    15.434265    0.536248    0.0    -4.046092    -6.577005    5.285004    0.0    0.0    0.0    0.0    0.0    0.0    0.0    0.0    0.0    0.0    0.0    0.0    0.0    0.0    0.0    23.6329    0.0    -0.0    36.299995    0.0    -0.0    23.6329    0.0    -0.0    47.265789    0.0    -0.0    72.600006    0.0    -0.0    47.265789    0.0    -0.0    71.61483    0.0    -0.0    110.0    0.0    -0.0    71.61483    0.0    -0.0    12.115725    -5.591195    22.298069    -0.2    52.621525    1.0    5.0    -30.0    8.272261    2.642195    6.312245    -6.269555    -5.629935    -27.420734    15.868289    0.2    47.239536    -1.0    5.0    -15.14537    2.99643    0.755159    -3.474658    -3.17445
2.109965    0.800684    0.993098    6.451591    -6.303697    75.982643    -11.809234    -4.326583    -25.261715    -6.885791    10.989523    -7.613607    -4.560496    41.123402    12.157358    1.844975    -14.900225    11.968826    12.333712    3.690778    -13.134641    -15.088428    24.562809    -61.920559    0.0    -39.813477    -10.0    13.743279    -7.117972    0.0    2.379605    2.262705    4.134928    -0.0    0.0    3.275193    -0.0    0.0    6.550386    -36.164196    0.0    0.0    -72.328392    0.0    0.0    -36.164196    0.0    0.0    -29.227785    0.0    0.0    -58.455589    0.0    0.0    -29.227785    0.0    0.0    -22.291389    0.0    0.0    -44.582783    0.0    0.0    -22.291389    0.0    0.0    -15.144793    0.0    0.0    -30.289585    0.0    0.0    -15.144793    0.0    0.0    -15.050032    3.840459    -11.22654    31.701117    -2.775301    -8.103586    0.0    -47.604778    127.853455    15.437139    0.626066    0.0    -3.965285    -6.602808    5.374136    0.0    0.0    0.0    0.0    0.0    0.0    0.0    0.0    0.0    0.0    0.0    0.0    0.0    0.0    0.0    17.86215    0.0    -0.0    35.724293    0.0    -0.0    17.86215    0.0    -0.0    35.724289    0.0    -0.0    71.448586    0.0    -0.0    35.724289    0.0    -0.0    54.12772    0.0    -0.0    108.255424    0.0    -0.0    54.12772    0.0    -0.0    12.792955    -3.275274    20.995657    -0.2    52.231834    1.0    5.0    -30.0    7.081336    2.9006    6.426309    -6.904836    -5.511553    -28.523157    16.660019    0.2    41.313225    -1.0    5.0    -10.65274    8.650878    0.804491    -3.884118    -3.421145
2.138577    0.802054    1.003997    6.35426    -5.995041    80.444969    -12.055125    -4.885466    -25.535805    -7.24453    11.767097    -7.599349    -3.671802    41.610451    9.527539    3.366779    -13.646749    9.81543    11.919345    4.113842    -13.356607    -13.917675    25.517231    -64.441307    0.0    -39.835594    -10.0    13.42294    -6.731174    0.0    2.17872    2.326552    4.063937    -0.0    0.0    3.225801    -0.0    0.0    6.451601    -36.3638    0.0    0.0    -72.727585    0.0    0.0    -36.3638    0.0    0.0    -29.251665    0.0    0.0    -58.503311    0.0    0.0    -29.251665    0.0    0.0    -22.139524    0.0    0.0    -44.279045    0.0    0.0    -22.139524    0.0    0.0    -14.811864    0.0    0.0    -29.623728    0.0    0.0    -14.811864    0.0    0.0    -15.366424    3.381147    -11.233389    30.928545    -1.572679    -8.371287    0.0    -47.693508    125.922935    15.256414    1.400671    0.0    -3.279202    -6.467238    5.722085    0.0    0.0    0.0    0.0    0.0    0.0    0.0    0.0    0.0    0.0    0.0    0.0    0.0    0.0    0.0    16.40535    0.0    -0.0    32.810699    0.0    -0.0    16.40535    0.0    -0.0    32.810699    0.0    -0.0    65.621399    0.0    -0.0    32.810699    0.0    -0.0    49.713184    0.0    -0.0    99.426369    0.0    -0.0    49.713184    0.0    -0.0    13.057334    -1.777119    18.965172    -0.2    51.026253    1.0    5.0    -30.0    5.843128    2.892809    6.016977    -6.970589    -6.904381    -29.219584    15.544044    0.2    34.85601    -1.0    5.0    -5.409177    12.174212    0.725971    -4.0123    -3.064523
